<svg width="27" height="40" viewBox="0 0 27 40" fill="none" xmlns="http://www.w3.org/2000/svg">
<path d="M25.6893 4.35171C25.3453 3.82489 24.8427 3.80976 24.27 3.79252C24.2051 3.79056 24.1393 3.78858 24.0728 3.78583C24.0221 3.7835 23.9661 3.78439 23.9077 3.78533C23.6754 3.78906 23.4038 3.79343 23.2669 3.59827C23.1082 3.37202 23.1233 2.93477 23.1357 2.57381C23.1396 2.45975 23.1433 2.35323 23.1411 2.26348C23.1188 1.42496 23.0723 0.534235 22.7486 0.236468C22.5045 0.0130579 21.7743 0.0440083 21.1009 0.0725521C20.8826 0.0818052 20.6702 0.0908054 20.4823 0.0908054H6.14821C5.8596 0.0908054 5.55707 0.0673049 5.25982 0.0442145C4.68062 -0.000778404 4.12145 -0.0442144 3.72438 0.0908054C3.14811 0.287715 3.10909 1.32243 3.07235 2.29678L3.07037 2.3492C3.03952 3.15356 2.84018 3.77423 2.17952 3.71171C1.41113 3.64017 0.646538 3.61761 0.299124 4.31304C-0.11118 5.13586 -0.0265591 5.99717 0.12501 7.5399C0.14666 7.76027 0.169677 7.99455 0.192812 8.2446H25.9109C25.9256 8.06183 25.9413 7.88141 25.9567 7.7039C26.0771 6.31592 26.182 5.10658 25.6893 4.35171Z" fill="#8047F8"/>
<path fill-rule="evenodd" clip-rule="evenodd" d="M2.19566 9.77469C2.59733 15.2109 2.99461 20.6534 3.3919 26.096L3.39214 26.0993C3.60786 29.0544 3.82357 32.0096 4.03999 34.9637H4.86059C4.91651 35.4262 4.98049 35.9971 5.04795 36.599C5.18489 37.8208 5.33616 39.1705 5.46335 40H5.55411C6.38996 39.6942 12.1683 37.2243 12.1709 27.3911C12.1698 27.3631 12.1708 27.335 12.1737 27.3072H10.7461C10.677 27.3065 10.61 27.2835 10.5554 27.2415C10.5009 27.1996 10.4618 27.1411 10.4441 27.075C10.305 26.7314 10.1929 26.3777 10.1086 26.017C9.26881 26.4913 8.60188 27.2156 8.20292 28.0866C7.8242 27.1945 7.77463 26.1993 8.06287 25.2748C8.35111 24.3502 8.95883 23.5552 9.77983 23.0287C9.79041 20.1593 10.8647 17.3933 12.7994 15.2543L12.8296 15.2278C12.8859 15.1792 12.9579 15.1521 13.0325 15.1515C13.0757 15.1519 13.1183 15.1611 13.1577 15.1786C13.1976 15.1963 13.2333 15.2221 13.2624 15.2543C15.2198 17.3962 16.2884 20.1888 16.2552 23.0751C17.0915 23.587 17.7116 24.3814 18.0004 25.311C18.2892 26.2405 18.227 27.2421 17.8254 28.1297C17.4286 27.2573 16.7611 26.5324 15.9197 26.0601C15.8683 26.4097 15.7736 26.7516 15.6379 27.0783C15.5909 27.2176 15.497 27.3072 15.403 27.3072H13.8806C13.883 27.3239 13.8847 27.3406 13.8857 27.3574L13.8862 27.3613V27.3694C13.8868 27.3839 13.8868 27.3984 13.8863 27.4129C13.9071 37.5284 20.0508 39.8244 20.5686 40H20.7458C20.791 39.2033 20.9382 38.1039 21.0817 37.0321C21.1806 36.2935 21.2777 35.568 21.3385 34.9637H22.1686C22.4343 31.2426 22.7076 27.5319 22.9809 23.8212L22.981 23.8192L22.9811 23.8181C23.3306 19.0716 23.6802 14.3249 24.0139 9.5562H2.24882C2.18617 9.56844 2.19044 9.67092 2.19566 9.77469ZM13.0325 15.1515L13.0309 15.1515H13.0343L13.0325 15.1515Z" fill="#8047F8"/>
</svg>
